<mxfile host="drawio-plugin" modified="2021-11-07T14:01:01.207Z" agent="5.0 (X11; Linux x86_64) AppleWebKit/537.36 (KHTML, like Gecko) Chrome/89.0.4389.114 Safari/537.36" etag="bWD838EJae-U8Fjai9pZ" version="14.7.4" type="embed"><diagram id="c8kKLL6Id0NaLEfzySLN" name="Page-1"><mxGraphModel dx="1112" dy="2025" grid="1" gridSize="10" guides="1" tooltips="1" connect="1" arrows="1" fold="1" page="1" pageScale="1" pageWidth="827" pageHeight="1169" math="0" shadow="0"><root><mxCell id="0"/><mxCell id="1" parent="0"/><object label="" placeholders="1" class_name="root" id="9sVO_kpWOGSHm0b9J-cb-1"><mxCell style="rounded=0;whiteSpace=wrap;html=1;container=0;connectable=0;allowArrows=0;treeFolding=0;moveCells=0;treeMoving=0;comic=0;rotatable=0;expand=1;autosize=1;resizeWidth=1;resizeHeight=1;metaEdit=1;" parent="1" vertex="1"><mxGeometry x="230" y="310" width="1040" height="615" as="geometry"><mxRectangle x="40" y="400" width="50" height="40" as="alternateBounds"/></mxGeometry></mxCell></object><object label="%class_name%" placeholders="1" id="9sVO_kpWOGSHm0b9J-cb-2"><mxCell style="rounded=0;whiteSpace=wrap;html=1;fontSize=18;connectable=0;allowArrows=0;rotatable=0;cloneable=0;deletable=0;" parent="9sVO_kpWOGSHm0b9J-cb-1" vertex="1"><mxGeometry x="13.68421052631579" y="22.77777777777778" width="1012.6315789473684" height="45.55555555555556" as="geometry"/></mxCell></object><mxCell id="9sVO_kpWOGSHm0b9J-cb-3" value="" style="rounded=0;whiteSpace=wrap;html=1;connectable=0;allowArrows=0;container=1;collapsible=0;portConstraintRotation=0;rotatable=0;cloneable=0;deletable=0;recursiveResize=0;" parent="9sVO_kpWOGSHm0b9J-cb-1" vertex="1"><mxGeometry x="13.68421052631579" y="79.72222222222221" width="1012.6315789473684" height="523.8888888888889" as="geometry"><mxRectangle x="10" y="70" width="50" height="40" as="alternateBounds"/></mxGeometry></mxCell><mxCell id="9sVO_kpWOGSHm0b9J-cb-26" style="edgeStyle=orthogonalEdgeStyle;rounded=0;orthogonalLoop=1;jettySize=auto;html=1;exitX=1;exitY=0.5;exitDx=0;exitDy=0;entryX=0;entryY=0.5;entryDx=0;entryDy=0;" parent="9sVO_kpWOGSHm0b9J-cb-3" source="9sVO_kpWOGSHm0b9J-cb-4" target="9sVO_kpWOGSHm0b9J-cb-19" edge="1"><mxGeometry relative="1" as="geometry"/></mxCell><mxCell id="9sVO_kpWOGSHm0b9J-cb-128" style="edgeStyle=orthogonalEdgeStyle;rounded=0;orthogonalLoop=1;jettySize=auto;html=1;exitX=1;exitY=0.5;exitDx=0;exitDy=0;entryX=0;entryY=0.5;entryDx=0;entryDy=0;" parent="9sVO_kpWOGSHm0b9J-cb-3" source="9sVO_kpWOGSHm0b9J-cb-4" target="9sVO_kpWOGSHm0b9J-cb-125" edge="1"><mxGeometry relative="1" as="geometry"><Array as="points"><mxPoint x="10" y="255"/><mxPoint x="376" y="255"/><mxPoint x="376" y="146"/></Array></mxGeometry></mxCell><mxCell id="9sVO_kpWOGSHm0b9J-cb-137" style="edgeStyle=orthogonalEdgeStyle;rounded=0;orthogonalLoop=1;jettySize=auto;html=1;exitX=1;exitY=0.5;exitDx=0;exitDy=0;entryX=0;entryY=0.5;entryDx=0;entryDy=0;" parent="9sVO_kpWOGSHm0b9J-cb-3" source="9sVO_kpWOGSHm0b9J-cb-4" target="9sVO_kpWOGSHm0b9J-cb-136" edge="1"><mxGeometry relative="1" as="geometry"><Array as="points"><mxPoint x="10" y="275"/><mxPoint x="426" y="275"/></Array></mxGeometry></mxCell><object label="%name%" placeholders="1" name="IN1" class_name="InputPortBlock" id="9sVO_kpWOGSHm0b9J-cb-4"><mxCell style="triangle;fontSize=14;points=[[0,0.5],[1,0.5]];allowArrows=0;verticalAlign=middle;horizontal=1;spacingTop=0;align=right;spacingLeft=0;spacingRight=8;html=1;comic=0;treeFolding=0;treeMoving=0;resizable=0;movableLabel=1;spacing=2;aspect=fixed;metaEdit=1;" parent="9sVO_kpWOGSHm0b9J-cb-3" vertex="1"><mxGeometry y="218.66666666666666" width="10" height="15" as="geometry"><mxPoint x="-4" y="-8" as="offset"/></mxGeometry></mxCell></object><object label="%name%" placeholders="1" name="OU1" class_name="OutputPortBlock" id="9sVO_kpWOGSHm0b9J-cb-5"><mxCell style="triangle;fontSize=14;points=[[0,0.5],[1,0.5]];allowArrows=0;verticalAlign=middle;horizontal=1;spacingTop=0;align=left;spacingLeft=4;spacingRight=0;html=1;comic=0;treeFolding=0;treeMoving=0;movable=1;resizable=0;rotatable=1;deletable=1;editable=1;connectable=1;movableLabel=1;spacing=2;aspect=fixed;metaEdit=1;" parent="9sVO_kpWOGSHm0b9J-cb-3" vertex="1"><mxGeometry x="998.9473684210526" y="218.66666666666666" width="10" height="15" as="geometry"><mxPoint x="5" y="-7" as="offset"/></mxGeometry></mxCell></object><object label="%symbol%" placeholders="1" symbol="&amp;sum;" class_name="AdderBlock" block_name="" id="9sVO_kpWOGSHm0b9J-cb-8"><mxCell style="whiteSpace=wrap;html=1;aspect=fixed;comic=0;fontSize=36;align=center;resizable=0;container=1;collapsible=0;points=[];allowArrows=0;spacingTop=-6;metaEdit=1;connectable=0;" parent="9sVO_kpWOGSHm0b9J-cb-3" vertex="1"><mxGeometry x="856.3168421052633" y="186.16222222222223" width="80" height="80" as="geometry"/></mxCell></object><object label="%name%" placeholders="1" name="OUT1" class_name="OutputPortBlock" id="9sVO_kpWOGSHm0b9J-cb-9"><mxCell style="triangle;fontSize=14;points=[[1,0.5]];allowArrows=0;verticalAlign=middle;horizontal=1;spacingTop=0;align=left;spacingLeft=4;spacingRight=0;html=1;comic=0;treeFolding=0;treeMoving=0;movable=1;resizable=0;rotatable=1;deletable=1;editable=1;connectable=1;movableLabel=1;spacing=2;aspect=fixed;metaEdit=1;" parent="9sVO_kpWOGSHm0b9J-cb-8" vertex="1"><mxGeometry x="70" y="32.5" width="10" height="15" as="geometry"><mxPoint x="5" y="-7" as="offset"/></mxGeometry></mxCell></object><object label="%name%" placeholders="1" name="IN1" class_name="InputPortBlock" id="9sVO_kpWOGSHm0b9J-cb-10"><mxCell style="triangle;fontSize=14;points=[[0,0.5]];allowArrows=0;verticalAlign=middle;horizontal=1;spacingTop=0;align=right;spacingLeft=0;spacingRight=8;html=1;comic=0;treeFolding=0;treeMoving=0;resizable=0;movableLabel=1;spacing=2;aspect=fixed;metaEdit=1;" parent="9sVO_kpWOGSHm0b9J-cb-8" vertex="1"><mxGeometry y="17.5" width="10" height="15" as="geometry"><mxPoint x="-4" y="-8" as="offset"/></mxGeometry></mxCell></object><object label="%name%" placeholders="1" name="IN2" class_name="InputPortBlock" id="9sVO_kpWOGSHm0b9J-cb-11"><mxCell style="triangle;fontSize=14;points=[[0,0.5]];allowArrows=0;verticalAlign=middle;horizontal=1;spacingTop=0;align=right;spacingLeft=0;spacingRight=8;html=1;comic=0;treeFolding=0;treeMoving=0;resizable=0;movableLabel=1;spacing=2;aspect=fixed;metaEdit=1;" parent="9sVO_kpWOGSHm0b9J-cb-8" vertex="1"><mxGeometry y="47.5" width="10" height="15" as="geometry"><mxPoint x="-4" y="-8" as="offset"/></mxGeometry></mxCell></object><object label="%symbol%" placeholders="1" symbol="D" class_name="DelayBlock" block_name="" id="9sVO_kpWOGSHm0b9J-cb-12"><mxCell style="whiteSpace=wrap;html=1;aspect=fixed;comic=0;fontSize=36;align=center;resizable=0;container=1;collapsible=0;points=[];allowArrows=0;metaEdit=1;connectable=0;" parent="9sVO_kpWOGSHm0b9J-cb-3" vertex="1"><mxGeometry x="716.3136842105264" y="266.1588888888889" width="80" height="80" as="geometry"/></mxCell></object><object label="%name%" placeholders="1" name="OUT1" class_name="OutputPortBlock" id="9sVO_kpWOGSHm0b9J-cb-13"><mxCell style="triangle;fontSize=14;points=[[1,0.5]];allowArrows=0;verticalAlign=middle;horizontal=1;spacingTop=0;align=left;spacingLeft=4;spacingRight=0;html=1;comic=0;treeFolding=0;treeMoving=0;movable=1;resizable=0;rotatable=1;deletable=1;editable=1;connectable=1;movableLabel=1;spacing=2;aspect=fixed;metaEdit=1;" parent="9sVO_kpWOGSHm0b9J-cb-12" vertex="1"><mxGeometry x="70" y="32.5" width="10" height="15" as="geometry"><mxPoint x="5" y="-7" as="offset"/></mxGeometry></mxCell></object><object label="%name%" placeholders="1" name="IC" class_name="InputPortBlock" id="9sVO_kpWOGSHm0b9J-cb-14"><mxCell style="triangle;fontSize=14;points=[[0,0.5]];allowArrows=0;verticalAlign=middle;horizontal=1;spacingTop=0;align=right;spacingLeft=0;spacingRight=8;html=1;comic=0;treeFolding=0;treeMoving=0;resizable=0;movableLabel=1;spacing=2;aspect=fixed;metaEdit=1;" parent="9sVO_kpWOGSHm0b9J-cb-12" vertex="1"><mxGeometry y="17.5" width="10" height="15" as="geometry"><mxPoint x="-4" y="-8" as="offset"/></mxGeometry></mxCell></object><object label="%name%" placeholders="1" name="IN1" class_name="InputPortBlock" id="9sVO_kpWOGSHm0b9J-cb-15"><mxCell style="triangle;fontSize=14;points=[[0,0.5]];allowArrows=0;verticalAlign=middle;horizontal=1;spacingTop=0;align=right;spacingLeft=0;spacingRight=8;html=1;comic=0;treeFolding=0;treeMoving=0;resizable=0;movableLabel=1;spacing=2;aspect=fixed;metaEdit=1;" parent="9sVO_kpWOGSHm0b9J-cb-12" vertex="1"><mxGeometry y="47.5" width="10" height="15" as="geometry"><mxPoint x="-4" y="-8" as="offset"/></mxGeometry></mxCell></object><object label="%symbol%" placeholders="1" symbol="D" class_name="DelayBlock" block_name="" id="9sVO_kpWOGSHm0b9J-cb-16"><mxCell style="whiteSpace=wrap;html=1;aspect=fixed;comic=0;fontSize=36;align=center;resizable=0;container=1;collapsible=0;points=[];allowArrows=0;metaEdit=1;connectable=0;" parent="9sVO_kpWOGSHm0b9J-cb-3" vertex="1"><mxGeometry x="66.31684210526316" y="165.13888888888889" width="80" height="80" as="geometry"/></mxCell></object><object label="%name%" placeholders="1" name="OUT1" class_name="OutputPortBlock" id="9sVO_kpWOGSHm0b9J-cb-17"><mxCell style="triangle;fontSize=14;points=[[1,0.5]];allowArrows=0;verticalAlign=middle;horizontal=1;spacingTop=0;align=left;spacingLeft=4;spacingRight=0;html=1;comic=0;treeFolding=0;treeMoving=0;movable=1;resizable=0;rotatable=1;deletable=1;editable=1;connectable=1;movableLabel=1;spacing=2;aspect=fixed;metaEdit=1;" parent="9sVO_kpWOGSHm0b9J-cb-16" vertex="1"><mxGeometry x="70" y="32.5" width="10" height="15" as="geometry"><mxPoint x="5" y="-7" as="offset"/></mxGeometry></mxCell></object><object label="%name%" placeholders="1" name="IC" class_name="InputPortBlock" id="9sVO_kpWOGSHm0b9J-cb-18"><mxCell style="triangle;fontSize=14;points=[[0,0.5]];allowArrows=0;verticalAlign=middle;horizontal=1;spacingTop=0;align=right;spacingLeft=0;spacingRight=8;html=1;comic=0;treeFolding=0;treeMoving=0;resizable=0;movableLabel=1;spacing=2;aspect=fixed;metaEdit=1;" parent="9sVO_kpWOGSHm0b9J-cb-16" vertex="1"><mxGeometry y="17.5" width="10" height="15" as="geometry"><mxPoint x="-4" y="-8" as="offset"/></mxGeometry></mxCell></object><object label="%name%" placeholders="1" name="IN1" class_name="InputPortBlock" id="9sVO_kpWOGSHm0b9J-cb-19"><mxCell style="triangle;fontSize=14;points=[[0,0.5]];allowArrows=0;verticalAlign=middle;horizontal=1;spacingTop=0;align=right;spacingLeft=0;spacingRight=8;html=1;comic=0;treeFolding=0;treeMoving=0;resizable=0;movableLabel=1;spacing=2;aspect=fixed;metaEdit=1;" parent="9sVO_kpWOGSHm0b9J-cb-16" vertex="1"><mxGeometry y="47.5" width="10" height="15" as="geometry"><mxPoint x="-4" y="-8" as="offset"/></mxGeometry></mxCell></object><object label="%symbol%" placeholders="1" symbol="D" class_name="DelayBlock" block_name="" id="9sVO_kpWOGSHm0b9J-cb-20"><mxCell style="whiteSpace=wrap;html=1;aspect=fixed;comic=0;fontSize=36;align=center;resizable=0;container=1;collapsible=0;points=[];allowArrows=0;metaEdit=1;connectable=0;" parent="9sVO_kpWOGSHm0b9J-cb-3" vertex="1"><mxGeometry x="226.31421052631578" y="74.02777777777777" width="80" height="80" as="geometry"/></mxCell></object><object label="%name%" placeholders="1" name="OUT1" class_name="OutputPortBlock" id="9sVO_kpWOGSHm0b9J-cb-21"><mxCell style="triangle;fontSize=14;points=[[1,0.5]];allowArrows=0;verticalAlign=middle;horizontal=1;spacingTop=0;align=left;spacingLeft=4;spacingRight=0;html=1;comic=0;treeFolding=0;treeMoving=0;movable=1;resizable=0;rotatable=1;deletable=1;editable=1;connectable=1;movableLabel=1;spacing=2;aspect=fixed;metaEdit=1;" parent="9sVO_kpWOGSHm0b9J-cb-20" vertex="1"><mxGeometry x="70" y="32.5" width="10" height="15" as="geometry"><mxPoint x="5" y="-7" as="offset"/></mxGeometry></mxCell></object><object label="%name%" placeholders="1" name="IC" class_name="InputPortBlock" id="9sVO_kpWOGSHm0b9J-cb-22"><mxCell style="triangle;fontSize=14;points=[[0,0.5]];allowArrows=0;verticalAlign=middle;horizontal=1;spacingTop=0;align=right;spacingLeft=0;spacingRight=8;html=1;comic=0;treeFolding=0;treeMoving=0;resizable=0;movableLabel=1;spacing=2;aspect=fixed;metaEdit=1;" parent="9sVO_kpWOGSHm0b9J-cb-20" vertex="1"><mxGeometry y="17.5" width="10" height="15" as="geometry"><mxPoint x="-4" y="-8" as="offset"/></mxGeometry></mxCell></object><object label="%name%" placeholders="1" name="IN1" class_name="InputPortBlock" id="9sVO_kpWOGSHm0b9J-cb-23"><mxCell style="triangle;fontSize=14;points=[[0,0.5]];allowArrows=0;verticalAlign=middle;horizontal=1;spacingTop=0;align=right;spacingLeft=0;spacingRight=8;html=1;comic=0;treeFolding=0;treeMoving=0;resizable=0;movableLabel=1;spacing=2;aspect=fixed;metaEdit=1;" parent="9sVO_kpWOGSHm0b9J-cb-20" vertex="1"><mxGeometry y="47.5" width="10" height="15" as="geometry"><mxPoint x="-4" y="-8" as="offset"/></mxGeometry></mxCell></object><mxCell id="9sVO_kpWOGSHm0b9J-cb-24" style="edgeStyle=orthogonalEdgeStyle;rounded=0;orthogonalLoop=1;jettySize=auto;html=1;exitX=1;exitY=0.5;exitDx=0;exitDy=0;entryX=0;entryY=0.5;entryDx=0;entryDy=0;" parent="9sVO_kpWOGSHm0b9J-cb-3" source="9sVO_kpWOGSHm0b9J-cb-9" target="9sVO_kpWOGSHm0b9J-cb-5" edge="1"><mxGeometry relative="1" as="geometry"/></mxCell><mxCell id="9sVO_kpWOGSHm0b9J-cb-25" style="edgeStyle=orthogonalEdgeStyle;rounded=0;orthogonalLoop=1;jettySize=auto;html=1;exitX=1;exitY=0.5;exitDx=0;exitDy=0;entryX=0;entryY=0.5;entryDx=0;entryDy=0;" parent="9sVO_kpWOGSHm0b9J-cb-3" source="9sVO_kpWOGSHm0b9J-cb-13" target="9sVO_kpWOGSHm0b9J-cb-10" edge="1"><mxGeometry relative="1" as="geometry"/></mxCell><mxCell id="9sVO_kpWOGSHm0b9J-cb-27" style="edgeStyle=orthogonalEdgeStyle;rounded=0;orthogonalLoop=1;jettySize=auto;html=1;exitX=1;exitY=0.5;exitDx=0;exitDy=0;entryX=0;entryY=0.5;entryDx=0;entryDy=0;" parent="9sVO_kpWOGSHm0b9J-cb-3" source="9sVO_kpWOGSHm0b9J-cb-17" target="9sVO_kpWOGSHm0b9J-cb-23" edge="1"><mxGeometry relative="1" as="geometry"/></mxCell><object label=" %symbol%" class_name="TimeBlock" block_name="" placeholders="1" symbol="&amp;#128336;" id="9sVO_kpWOGSHm0b9J-cb-106"><mxCell style="whiteSpace=wrap;html=1;aspect=fixed;connectable=0;allowArrows=0;container=1;collapsible=0;resizable=0;fontSize=45;metaEdit=1;" parent="9sVO_kpWOGSHm0b9J-cb-3" vertex="1"><mxGeometry x="54.73684210526316" y="370.13888888888886" width="80" height="80" as="geometry"/></mxCell></object><object label="%name%" placeholders="1" name="OUT1" class_name="OutputPortBlock" id="9sVO_kpWOGSHm0b9J-cb-107"><mxCell style="triangle;fontSize=14;points=[[1,0.5]];allowArrows=0;verticalAlign=middle;horizontal=1;spacingTop=0;align=left;spacingLeft=4;spacingRight=0;html=1;comic=0;treeFolding=0;treeMoving=0;movable=1;resizable=0;rotatable=1;deletable=1;editable=1;connectable=1;movableLabel=1;spacing=2;aspect=fixed;metaEdit=1;" parent="9sVO_kpWOGSHm0b9J-cb-106" vertex="1"><mxGeometry x="70" y="33" width="10" height="15" as="geometry"><mxPoint x="5" y="-7" as="offset"/></mxGeometry></mxCell></object><object label="%symbol%" placeholders="1" symbol="&amp;#10869;" class_name="EqualsBlock" block_name="" id="9sVO_kpWOGSHm0b9J-cb-108"><mxCell style="whiteSpace=wrap;html=1;aspect=fixed;comic=0;fontSize=36;align=center;resizable=0;container=1;collapsible=0;points=[];allowArrows=0;metaEdit=1;connectable=0;" parent="9sVO_kpWOGSHm0b9J-cb-3" vertex="1"><mxGeometry x="328.42105263157896" y="371.27777777777777" width="80" height="80" as="geometry"/></mxCell></object><object label="%name%" placeholders="1" name="OUT1" class_name="OutputPortBlock" id="9sVO_kpWOGSHm0b9J-cb-109"><mxCell style="triangle;fontSize=14;points=[[1,0.5]];allowArrows=0;verticalAlign=middle;horizontal=1;spacingTop=0;align=left;spacingLeft=4;spacingRight=0;html=1;comic=0;treeFolding=0;treeMoving=0;movable=1;resizable=0;rotatable=1;deletable=1;editable=1;connectable=1;movableLabel=1;spacing=2;aspect=fixed;metaEdit=1;" parent="9sVO_kpWOGSHm0b9J-cb-108" vertex="1"><mxGeometry x="70" y="32.5" width="10" height="15" as="geometry"><mxPoint x="5" y="-7" as="offset"/></mxGeometry></mxCell></object><object label="%name%" placeholders="1" name="IN1" class_name="InputPortBlock" id="9sVO_kpWOGSHm0b9J-cb-110"><mxCell style="triangle;fontSize=14;points=[[0,0.5]];allowArrows=0;verticalAlign=middle;horizontal=1;spacingTop=0;align=right;spacingLeft=0;spacingRight=8;html=1;comic=0;treeFolding=0;treeMoving=0;resizable=0;movableLabel=1;spacing=2;aspect=fixed;metaEdit=1;" parent="9sVO_kpWOGSHm0b9J-cb-108" vertex="1"><mxGeometry y="17.5" width="10" height="15" as="geometry"><mxPoint x="-4" y="-8" as="offset"/></mxGeometry></mxCell></object><object label="%name%" placeholders="1" name="IN2" class_name="InputPortBlock" id="9sVO_kpWOGSHm0b9J-cb-111"><mxCell style="triangle;fontSize=14;points=[[0,0.5]];allowArrows=0;verticalAlign=middle;horizontal=1;spacingTop=0;align=right;spacingLeft=0;spacingRight=8;html=1;comic=0;treeFolding=0;treeMoving=0;resizable=0;movableLabel=1;spacing=2;aspect=fixed;metaEdit=1;" parent="9sVO_kpWOGSHm0b9J-cb-108" vertex="1"><mxGeometry y="47.5" width="10" height="15" as="geometry"><mxPoint x="-4" y="-8" as="offset"/></mxGeometry></mxCell></object><object label="%value%" placeholders="1" value="0" block_name="" class_name="ConstantBlock" id="9sVO_kpWOGSHm0b9J-cb-112"><mxCell style="ellipse;whiteSpace=wrap;html=1;comic=0;fontSize=24;align=center;allowArrows=0;connectable=0;container=1;collapsible=0;recursiveResize=1;direction=west;resizable=0;metaEdit=1;" parent="9sVO_kpWOGSHm0b9J-cb-3" vertex="1"><mxGeometry x="196.31684210526316" y="290.27777777777777" width="80" height="80" as="geometry"/></mxCell></object><object label="%name%" placeholders="1" name="OUT1" class_name="OutputPortBlock" id="9sVO_kpWOGSHm0b9J-cb-113"><mxCell style="triangle;fontSize=14;points=[[1,0.5]];allowArrows=0;verticalAlign=middle;horizontal=1;spacingTop=0;align=left;spacingLeft=4;spacingRight=0;html=1;comic=0;treeFolding=0;treeMoving=0;movable=1;resizable=0;rotatable=1;deletable=1;editable=1;connectable=1;movableLabel=1;spacing=2;aspect=fixed;metaEdit=1;" parent="9sVO_kpWOGSHm0b9J-cb-112" vertex="1"><mxGeometry x="70" y="32.5" width="10" height="15" as="geometry"><mxPoint x="6" y="-7" as="offset"/></mxGeometry></mxCell></object><mxCell id="9sVO_kpWOGSHm0b9J-cb-114" style="edgeStyle=orthogonalEdgeStyle;rounded=0;orthogonalLoop=1;jettySize=auto;html=1;exitX=1;exitY=0.5;exitDx=0;exitDy=0;entryX=0;entryY=0.5;entryDx=0;entryDy=0;" parent="9sVO_kpWOGSHm0b9J-cb-3" source="9sVO_kpWOGSHm0b9J-cb-113" target="9sVO_kpWOGSHm0b9J-cb-110" edge="1"><mxGeometry relative="1" as="geometry"/></mxCell><mxCell id="9sVO_kpWOGSHm0b9J-cb-115" style="edgeStyle=orthogonalEdgeStyle;rounded=0;orthogonalLoop=1;jettySize=auto;html=1;exitX=1;exitY=0.5;exitDx=0;exitDy=0;entryX=0;entryY=0.5;entryDx=0;entryDy=0;" parent="9sVO_kpWOGSHm0b9J-cb-3" source="9sVO_kpWOGSHm0b9J-cb-107" target="9sVO_kpWOGSHm0b9J-cb-111" edge="1"><mxGeometry relative="1" as="geometry"/></mxCell><object label="%symbol%" placeholders="1" symbol="MUX" class_name="MultiplexerBlock" block_name="" id="9sVO_kpWOGSHm0b9J-cb-116"><mxCell style="whiteSpace=wrap;html=1;aspect=fixed;comic=0;fontSize=20;align=center;resizable=0;container=1;collapsible=0;points=[];allowArrows=0;metaEdit=1;connectable=0;" parent="9sVO_kpWOGSHm0b9J-cb-3" vertex="1"><mxGeometry x="596.3168421052632" y="145.27444444444444" width="80" height="80" as="geometry"/></mxCell></object><object label="%name%" placeholders="1" name="OUT1" class_name="OutputPortBlock" id="9sVO_kpWOGSHm0b9J-cb-117"><mxCell style="triangle;fontSize=14;points=[[1,0.5]];allowArrows=0;verticalAlign=middle;horizontal=1;spacingTop=0;align=left;spacingLeft=4;spacingRight=0;html=1;comic=0;treeFolding=0;treeMoving=0;movable=1;resizable=0;rotatable=1;deletable=1;editable=1;connectable=1;movableLabel=1;spacing=2;aspect=fixed;metaEdit=1;" parent="9sVO_kpWOGSHm0b9J-cb-116" vertex="1"><mxGeometry x="70" y="32.5" width="10" height="15" as="geometry"><mxPoint x="5" y="-7" as="offset"/></mxGeometry></mxCell></object><object label="%name%" placeholders="1" name="IN1" class_name="InputPortBlock" id="9sVO_kpWOGSHm0b9J-cb-118"><mxCell style="triangle;fontSize=14;points=[[0,0.5]];allowArrows=0;verticalAlign=middle;horizontal=1;spacingTop=0;align=right;spacingLeft=0;spacingRight=8;html=1;comic=0;treeFolding=0;treeMoving=0;resizable=0;movableLabel=1;spacing=2;aspect=fixed;metaEdit=1;" parent="9sVO_kpWOGSHm0b9J-cb-116" vertex="1"><mxGeometry y="17.5" width="10" height="15" as="geometry"><mxPoint x="-4" y="-8" as="offset"/></mxGeometry></mxCell></object><object label="%name%" placeholders="1" name="IN2" class_name="InputPortBlock" id="9sVO_kpWOGSHm0b9J-cb-119"><mxCell style="triangle;fontSize=14;points=[[0,0.5]];allowArrows=0;verticalAlign=middle;horizontal=1;spacingTop=0;align=right;spacingLeft=0;spacingRight=8;html=1;comic=0;treeFolding=0;treeMoving=0;resizable=0;movableLabel=1;spacing=2;aspect=fixed;metaEdit=1;" parent="9sVO_kpWOGSHm0b9J-cb-116" vertex="1"><mxGeometry y="47.5" width="10" height="15" as="geometry"><mxPoint x="-4" y="-8" as="offset"/></mxGeometry></mxCell></object><object label="%name%" placeholders="1" name="select" class_name="InputPortBlock" id="9sVO_kpWOGSHm0b9J-cb-120"><mxCell style="triangle;fontSize=14;points=[[0,0.5]];allowArrows=0;verticalAlign=middle;horizontal=1;spacingTop=0;align=left;spacingLeft=2;spacingRight=0;html=1;comic=0;treeFolding=0;treeMoving=0;resizable=0;movableLabel=1;spacing=2;aspect=fixed;direction=south;metaEdit=1;" parent="9sVO_kpWOGSHm0b9J-cb-116" vertex="1"><mxGeometry x="32.5" width="15" height="10" as="geometry"><mxPoint x="10" y="-15" as="offset"/></mxGeometry></mxCell></object><object label="%symbol%" placeholders="1" symbol="SIMP" class_name="SimpsonBlock" block_name="" id="9sVO_kpWOGSHm0b9J-cb-121"><mxCell style="whiteSpace=wrap;html=1;aspect=fixed;comic=0;fontSize=36;align=center;resizable=0;container=1;collapsible=0;points=[];allowArrows=0;metaEdit=1;connectable=0;" parent="9sVO_kpWOGSHm0b9J-cb-3" vertex="1"><mxGeometry x="426.31894736842105" y="74.02444444444444" width="80" height="80" as="geometry"/></mxCell></object><object label="%name%" placeholders="1" name="OUT1" class_name="OutputPortBlock" id="9sVO_kpWOGSHm0b9J-cb-122"><mxCell style="triangle;fontSize=14;points=[[1,0.5]];allowArrows=0;verticalAlign=middle;horizontal=1;spacingTop=0;align=left;spacingLeft=4;spacingRight=0;html=1;comic=0;treeFolding=0;treeMoving=0;movable=1;resizable=0;rotatable=1;deletable=1;editable=1;connectable=1;movableLabel=1;spacing=2;aspect=fixed;metaEdit=1;" parent="9sVO_kpWOGSHm0b9J-cb-121" vertex="1"><mxGeometry x="70" y="32.5" width="10" height="15" as="geometry"><mxPoint x="5" y="-7" as="offset"/></mxGeometry></mxCell></object><object label="%name%" placeholders="1" name="IC" class_name="InputPortBlock" id="9sVO_kpWOGSHm0b9J-cb-123"><mxCell style="triangle;fontSize=14;points=[[0,0.5]];allowArrows=0;verticalAlign=middle;horizontal=1;spacingTop=0;align=right;spacingLeft=0;spacingRight=8;html=1;comic=0;treeFolding=0;treeMoving=0;resizable=0;movableLabel=1;spacing=2;aspect=fixed;metaEdit=1;" parent="9sVO_kpWOGSHm0b9J-cb-121" vertex="1"><mxGeometry width="10" height="15" as="geometry"><mxPoint x="-4" y="-8" as="offset"/></mxGeometry></mxCell></object><object label="%name%" placeholders="1" name="IN1" class_name="InputPortBlock" id="9sVO_kpWOGSHm0b9J-cb-124"><mxCell style="triangle;fontSize=14;points=[[0,0.5]];allowArrows=0;verticalAlign=middle;horizontal=1;spacingTop=0;align=right;spacingLeft=0;spacingRight=8;html=1;comic=0;treeFolding=0;treeMoving=0;resizable=0;movableLabel=1;spacing=2;aspect=fixed;metaEdit=1;" parent="9sVO_kpWOGSHm0b9J-cb-121" vertex="1"><mxGeometry y="32.5" width="10" height="15" as="geometry"><mxPoint x="-4" y="-8" as="offset"/></mxGeometry></mxCell></object><object label="%name%" placeholders="1" name="delta_t" class_name="InputPortBlock" id="9sVO_kpWOGSHm0b9J-cb-125"><mxCell style="triangle;fontSize=14;points=[[0,0.5]];allowArrows=0;verticalAlign=middle;horizontal=1;spacingTop=0;align=right;spacingLeft=0;spacingRight=8;html=1;comic=0;treeFolding=0;treeMoving=0;resizable=0;movableLabel=1;spacing=2;aspect=fixed;metaEdit=1;" parent="9sVO_kpWOGSHm0b9J-cb-121" vertex="1"><mxGeometry y="65" width="10" height="15" as="geometry"><mxPoint x="-4" y="-8" as="offset"/></mxGeometry></mxCell></object><mxCell id="9sVO_kpWOGSHm0b9J-cb-126" style="edgeStyle=orthogonalEdgeStyle;rounded=0;orthogonalLoop=1;jettySize=auto;html=1;exitX=1;exitY=0.5;exitDx=0;exitDy=0;entryX=0.7;entryY=0.534;entryDx=0;entryDy=0;entryPerimeter=0;" parent="9sVO_kpWOGSHm0b9J-cb-3" source="9sVO_kpWOGSHm0b9J-cb-21" target="9sVO_kpWOGSHm0b9J-cb-123" edge="1"><mxGeometry relative="1" as="geometry"><Array as="points"><mxPoint x="346" y="114"/><mxPoint x="346" y="82"/></Array></mxGeometry></mxCell><mxCell id="9sVO_kpWOGSHm0b9J-cb-127" style="edgeStyle=orthogonalEdgeStyle;rounded=0;orthogonalLoop=1;jettySize=auto;html=1;exitX=1;exitY=0.5;exitDx=0;exitDy=0;entryX=0;entryY=0.5;entryDx=0;entryDy=0;" parent="9sVO_kpWOGSHm0b9J-cb-3" source="9sVO_kpWOGSHm0b9J-cb-17" target="9sVO_kpWOGSHm0b9J-cb-124" edge="1"><mxGeometry relative="1" as="geometry"><Array as="points"><mxPoint x="356" y="205"/><mxPoint x="356" y="114"/></Array></mxGeometry></mxCell><object label="%symbol%" placeholders="1" symbol="TRAP" class_name="AdderBlock" block_name="" id="9sVO_kpWOGSHm0b9J-cb-133"><mxCell style="whiteSpace=wrap;html=1;aspect=fixed;comic=0;fontSize=36;align=center;resizable=0;container=1;collapsible=0;points=[];allowArrows=0;spacingTop=-6;metaEdit=1;connectable=0;" parent="9sVO_kpWOGSHm0b9J-cb-3" vertex="1"><mxGeometry x="426.3157894736842" y="221.9477777777778" width="80" height="80" as="geometry"/></mxCell></object><object label="%name%" placeholders="1" name="OUT1" class_name="OutputPortBlock" id="9sVO_kpWOGSHm0b9J-cb-134"><mxCell style="triangle;fontSize=14;points=[[1,0.5]];allowArrows=0;verticalAlign=middle;horizontal=1;spacingTop=0;align=left;spacingLeft=4;spacingRight=0;html=1;comic=0;treeFolding=0;treeMoving=0;movable=1;resizable=0;rotatable=1;deletable=1;editable=1;connectable=1;movableLabel=1;spacing=2;aspect=fixed;metaEdit=1;" parent="9sVO_kpWOGSHm0b9J-cb-133" vertex="1"><mxGeometry x="70" y="32.5" width="10" height="15" as="geometry"><mxPoint x="5" y="-7" as="offset"/></mxGeometry></mxCell></object><object label="%name%" placeholders="1" name="IN1" class_name="InputPortBlock" id="9sVO_kpWOGSHm0b9J-cb-135"><mxCell style="triangle;fontSize=14;points=[[0,0.5]];allowArrows=0;verticalAlign=middle;horizontal=1;spacingTop=0;align=right;spacingLeft=0;spacingRight=8;html=1;comic=0;treeFolding=0;treeMoving=0;resizable=0;movableLabel=1;spacing=2;aspect=fixed;metaEdit=1;" parent="9sVO_kpWOGSHm0b9J-cb-133" vertex="1"><mxGeometry y="17.5" width="10" height="15" as="geometry"><mxPoint x="-4" y="-8" as="offset"/></mxGeometry></mxCell></object><object label="%name%" placeholders="1" name="IN2" class_name="InputPortBlock" id="9sVO_kpWOGSHm0b9J-cb-136"><mxCell style="triangle;fontSize=14;points=[[0,0.5]];allowArrows=0;verticalAlign=middle;horizontal=1;spacingTop=0;align=right;spacingLeft=0;spacingRight=8;html=1;comic=0;treeFolding=0;treeMoving=0;resizable=0;movableLabel=1;spacing=2;aspect=fixed;metaEdit=1;" parent="9sVO_kpWOGSHm0b9J-cb-133" vertex="1"><mxGeometry y="47.5" width="10" height="15" as="geometry"><mxPoint x="-4" y="-8" as="offset"/></mxGeometry></mxCell></object><mxCell id="9sVO_kpWOGSHm0b9J-cb-138" style="edgeStyle=orthogonalEdgeStyle;rounded=0;orthogonalLoop=1;jettySize=auto;html=1;exitX=1;exitY=0.5;exitDx=0;exitDy=0;entryX=0;entryY=0.5;entryDx=0;entryDy=0;" parent="9sVO_kpWOGSHm0b9J-cb-3" source="9sVO_kpWOGSHm0b9J-cb-17" target="9sVO_kpWOGSHm0b9J-cb-135" edge="1"><mxGeometry relative="1" as="geometry"><Array as="points"><mxPoint x="356" y="205"/><mxPoint x="356" y="247"/></Array></mxGeometry></mxCell><mxCell id="9sVO_kpWOGSHm0b9J-cb-139" style="edgeStyle=orthogonalEdgeStyle;rounded=0;orthogonalLoop=1;jettySize=auto;html=1;exitX=1;exitY=0.5;exitDx=0;exitDy=0;entryX=0;entryY=0.5;entryDx=0;entryDy=0;" parent="9sVO_kpWOGSHm0b9J-cb-3" source="9sVO_kpWOGSHm0b9J-cb-109" target="9sVO_kpWOGSHm0b9J-cb-120" edge="1"><mxGeometry relative="1" as="geometry"/></mxCell><mxCell id="9sVO_kpWOGSHm0b9J-cb-140" style="edgeStyle=orthogonalEdgeStyle;rounded=0;orthogonalLoop=1;jettySize=auto;html=1;exitX=1;exitY=0.5;exitDx=0;exitDy=0;entryX=0;entryY=0.5;entryDx=0;entryDy=0;" parent="9sVO_kpWOGSHm0b9J-cb-3" source="9sVO_kpWOGSHm0b9J-cb-134" target="9sVO_kpWOGSHm0b9J-cb-119" edge="1"><mxGeometry relative="1" as="geometry"/></mxCell><mxCell id="9sVO_kpWOGSHm0b9J-cb-141" style="edgeStyle=orthogonalEdgeStyle;rounded=0;orthogonalLoop=1;jettySize=auto;html=1;exitX=1;exitY=0.5;exitDx=0;exitDy=0;entryX=0;entryY=0.5;entryDx=0;entryDy=0;" parent="9sVO_kpWOGSHm0b9J-cb-3" source="9sVO_kpWOGSHm0b9J-cb-122" target="9sVO_kpWOGSHm0b9J-cb-118" edge="1"><mxGeometry relative="1" as="geometry"><Array as="points"><mxPoint x="556" y="114"/><mxPoint x="556" y="170"/></Array></mxGeometry></mxCell><mxCell id="9sVO_kpWOGSHm0b9J-cb-143" style="edgeStyle=orthogonalEdgeStyle;rounded=0;orthogonalLoop=1;jettySize=auto;html=1;exitX=1;exitY=0.5;exitDx=0;exitDy=0;entryX=0;entryY=0.5;entryDx=0;entryDy=0;" parent="9sVO_kpWOGSHm0b9J-cb-3" source="9sVO_kpWOGSHm0b9J-cb-113" target="9sVO_kpWOGSHm0b9J-cb-14" edge="1"><mxGeometry relative="1" as="geometry"><Array as="points"><mxPoint x="576" y="330"/><mxPoint x="576" y="291"/></Array></mxGeometry></mxCell><mxCell id="9sVO_kpWOGSHm0b9J-cb-144" style="edgeStyle=orthogonalEdgeStyle;rounded=0;orthogonalLoop=1;jettySize=auto;html=1;exitX=1;exitY=0.5;exitDx=0;exitDy=0;entryX=0;entryY=0.5;entryDx=0;entryDy=0;" parent="9sVO_kpWOGSHm0b9J-cb-3" source="9sVO_kpWOGSHm0b9J-cb-117" target="9sVO_kpWOGSHm0b9J-cb-11" edge="1"><mxGeometry relative="1" as="geometry"/></mxCell><mxCell id="9sVO_kpWOGSHm0b9J-cb-145" style="edgeStyle=orthogonalEdgeStyle;rounded=0;orthogonalLoop=1;jettySize=auto;html=1;exitX=1;exitY=0.5;exitDx=0;exitDy=0;entryX=0;entryY=0.5;entryDx=0;entryDy=0;" parent="9sVO_kpWOGSHm0b9J-cb-3" source="9sVO_kpWOGSHm0b9J-cb-9" target="9sVO_kpWOGSHm0b9J-cb-15" edge="1"><mxGeometry relative="1" as="geometry"><Array as="points"><mxPoint x="956" y="226"/><mxPoint x="956" y="370"/><mxPoint x="696" y="370"/><mxPoint x="696" y="321"/></Array></mxGeometry></mxCell><object label="%name%" placeholders="1" name="delta_t" class_name="InputPortBlock" id="LSH27E_tYWa4RfOrXtbz-1"><mxCell style="triangle;fontSize=14;points=[[0,0.5],[1,0.5]];allowArrows=0;verticalAlign=middle;horizontal=1;spacingTop=0;align=right;spacingLeft=0;spacingRight=8;html=1;comic=0;treeFolding=0;treeMoving=0;resizable=0;movableLabel=1;spacing=2;aspect=fixed;metaEdit=1;" parent="9sVO_kpWOGSHm0b9J-cb-3" vertex="1"><mxGeometry x="-0.004210526315773677" y="331.1577777777778" width="10" height="15" as="geometry"><mxPoint x="-4" y="-8" as="offset"/></mxGeometry></mxCell></object><mxCell id="LSH27E_tYWa4RfOrXtbz-3" style="edgeStyle=orthogonalEdgeStyle;rounded=0;orthogonalLoop=1;jettySize=auto;html=1;exitX=1;exitY=0.5;exitDx=0;exitDy=0;entryX=0;entryY=0.5;entryDx=0;entryDy=0;" parent="9sVO_kpWOGSHm0b9J-cb-3" source="LSH27E_tYWa4RfOrXtbz-2" target="9sVO_kpWOGSHm0b9J-cb-18" edge="1"><mxGeometry relative="1" as="geometry"/></mxCell><mxCell id="LSH27E_tYWa4RfOrXtbz-4" style="edgeStyle=orthogonalEdgeStyle;rounded=0;orthogonalLoop=1;jettySize=auto;html=1;exitX=1;exitY=0.5;exitDx=0;exitDy=0;entryX=0;entryY=0.5;entryDx=0;entryDy=0;" parent="9sVO_kpWOGSHm0b9J-cb-3" source="LSH27E_tYWa4RfOrXtbz-2" target="9sVO_kpWOGSHm0b9J-cb-22" edge="1"><mxGeometry relative="1" as="geometry"/></mxCell><object label="%name%" placeholders="1" name="IC" class_name="InputPortBlock" id="LSH27E_tYWa4RfOrXtbz-2"><mxCell style="triangle;fontSize=14;points=[[0,0.5],[1,0.5]];allowArrows=0;verticalAlign=middle;horizontal=1;spacingTop=0;align=right;spacingLeft=0;spacingRight=8;html=1;comic=0;treeFolding=0;treeMoving=0;resizable=0;movableLabel=1;spacing=2;aspect=fixed;metaEdit=1;" parent="9sVO_kpWOGSHm0b9J-cb-3" vertex="1"><mxGeometry x="-0.004210526315773677" y="130.27777777777777" width="10" height="15" as="geometry"><mxPoint x="-4" y="-8" as="offset"/></mxGeometry></mxCell></object><object label="" placeholders="1" class_name="TrapezoidBlock" id="9sVO_kpWOGSHm0b9J-cb-28"><mxCell style="rounded=0;whiteSpace=wrap;html=1;container=0;connectable=0;allowArrows=0;treeFolding=0;moveCells=0;treeMoving=0;comic=0;rotatable=0;expand=1;autosize=1;resizeWidth=1;resizeHeight=1;metaEdit=1;" parent="1" vertex="1"><mxGeometry x="140" y="-230" width="760" height="540" as="geometry"><mxRectangle x="40" y="400" width="50" height="40" as="alternateBounds"/></mxGeometry></mxCell></object><object label="trapezoid" placeholders="1" id="9sVO_kpWOGSHm0b9J-cb-29"><mxCell style="rounded=0;whiteSpace=wrap;html=1;fontSize=18;connectable=0;allowArrows=0;rotatable=0;cloneable=0;deletable=0;" parent="9sVO_kpWOGSHm0b9J-cb-28" vertex="1"><mxGeometry x="10" y="20" width="740" height="40" as="geometry"/></mxCell></object><mxCell id="9sVO_kpWOGSHm0b9J-cb-30" value="" style="rounded=0;whiteSpace=wrap;html=1;connectable=0;allowArrows=0;container=1;collapsible=0;portConstraintRotation=0;rotatable=0;cloneable=0;deletable=0;recursiveResize=0;" parent="9sVO_kpWOGSHm0b9J-cb-28" vertex="1"><mxGeometry x="10" y="70" width="740" height="460" as="geometry"><mxRectangle x="10" y="70" width="50" height="40" as="alternateBounds"/></mxGeometry></mxCell><object label="%value%" placeholders="1" value="0" block_name="y0" class_name="ConstantBlock" id="9sVO_kpWOGSHm0b9J-cb-31"><mxCell style="ellipse;whiteSpace=wrap;html=1;comic=0;fontSize=24;align=center;allowArrows=0;connectable=0;container=1;collapsible=0;recursiveResize=1;direction=west;resizable=0;metaEdit=1;" parent="9sVO_kpWOGSHm0b9J-cb-30" vertex="1"><mxGeometry x="200" y="100" width="80" height="80" as="geometry"/></mxCell></object><object label="%name%" placeholders="1" name="OUT1" class_name="OutputPortBlock" id="9sVO_kpWOGSHm0b9J-cb-32"><mxCell style="triangle;fontSize=14;points=[[1,0.5]];allowArrows=0;verticalAlign=middle;horizontal=1;spacingTop=0;align=left;spacingLeft=4;spacingRight=0;html=1;comic=0;treeFolding=0;treeMoving=0;movable=1;resizable=0;rotatable=1;deletable=1;editable=1;connectable=1;movableLabel=1;spacing=2;aspect=fixed;metaEdit=1;" parent="9sVO_kpWOGSHm0b9J-cb-31" vertex="1"><mxGeometry x="70" y="32.5" width="10" height="15" as="geometry"><mxPoint x="6" y="-7" as="offset"/></mxGeometry></mxCell></object><mxCell id="9sVO_kpWOGSHm0b9J-cb-132" style="edgeStyle=orthogonalEdgeStyle;rounded=0;orthogonalLoop=1;jettySize=auto;html=1;exitX=1;exitY=0.5;exitDx=0;exitDy=0;entryX=0;entryY=0.5;entryDx=0;entryDy=0;" parent="9sVO_kpWOGSHm0b9J-cb-30" source="9sVO_kpWOGSHm0b9J-cb-35" target="9sVO_kpWOGSHm0b9J-cb-54" edge="1"><mxGeometry relative="1" as="geometry"/></mxCell><object label="%name%" placeholders="1" name="fa" class_name="InputPortBlock" id="9sVO_kpWOGSHm0b9J-cb-35"><mxCell style="triangle;fontSize=14;points=[[0,0.5],[1,0.5]];allowArrows=0;verticalAlign=middle;horizontal=1;spacingTop=0;align=right;spacingLeft=0;spacingRight=8;html=1;comic=0;treeFolding=0;treeMoving=0;resizable=0;movableLabel=1;spacing=2;aspect=fixed;metaEdit=1;" parent="9sVO_kpWOGSHm0b9J-cb-30" vertex="1"><mxGeometry x="20" y="180" width="10" height="15" as="geometry"><mxPoint x="-4" y="-8" as="offset"/></mxGeometry></mxCell></object><object label="%name%" placeholders="1" name="out" class_name="OutputPortBlock" id="9sVO_kpWOGSHm0b9J-cb-36"><mxCell style="triangle;fontSize=14;points=[[0,0.5],[1,0.5]];allowArrows=0;verticalAlign=middle;horizontal=1;spacingTop=0;align=left;spacingLeft=4;spacingRight=0;html=1;comic=0;treeFolding=0;treeMoving=0;movable=1;resizable=0;rotatable=1;deletable=1;editable=1;connectable=1;movableLabel=1;spacing=2;aspect=fixed;metaEdit=1;" parent="9sVO_kpWOGSHm0b9J-cb-30" vertex="1"><mxGeometry x="720" y="162.5" width="10" height="15" as="geometry"><mxPoint x="5" y="-7" as="offset"/></mxGeometry></mxCell></object><object label="%symbol%" placeholders="1" symbol="&amp;sum;" class_name="AdderBlock" block_name="accumulator" id="9sVO_kpWOGSHm0b9J-cb-37"><mxCell style="whiteSpace=wrap;html=1;aspect=fixed;comic=0;fontSize=36;align=center;resizable=0;container=1;collapsible=0;points=[];allowArrows=0;spacingTop=-6;metaEdit=1;connectable=0;" parent="9sVO_kpWOGSHm0b9J-cb-30" vertex="1"><mxGeometry x="576" y="130" width="80" height="80" as="geometry"/></mxCell></object><object label="%name%" placeholders="1" name="OUT1" class_name="OutputPortBlock" id="9sVO_kpWOGSHm0b9J-cb-38"><mxCell style="triangle;fontSize=14;points=[[1,0.5]];allowArrows=0;verticalAlign=middle;horizontal=1;spacingTop=0;align=left;spacingLeft=4;spacingRight=0;html=1;comic=0;treeFolding=0;treeMoving=0;movable=1;resizable=0;rotatable=1;deletable=1;editable=1;connectable=1;movableLabel=1;spacing=2;aspect=fixed;metaEdit=1;" parent="9sVO_kpWOGSHm0b9J-cb-37" vertex="1"><mxGeometry x="70" y="32.5" width="10" height="15" as="geometry"><mxPoint x="5" y="-7" as="offset"/></mxGeometry></mxCell></object><object label="%name%" placeholders="1" name="IN1" class_name="InputPortBlock" id="9sVO_kpWOGSHm0b9J-cb-39"><mxCell style="triangle;fontSize=14;points=[[0,0.5]];allowArrows=0;verticalAlign=middle;horizontal=1;spacingTop=0;align=right;spacingLeft=0;spacingRight=8;html=1;comic=0;treeFolding=0;treeMoving=0;resizable=0;movableLabel=1;spacing=2;aspect=fixed;metaEdit=1;" parent="9sVO_kpWOGSHm0b9J-cb-37" vertex="1"><mxGeometry y="17.5" width="10" height="15" as="geometry"><mxPoint x="-4" y="-8" as="offset"/></mxGeometry></mxCell></object><object label="%name%" placeholders="1" name="IN2" class_name="InputPortBlock" id="9sVO_kpWOGSHm0b9J-cb-40"><mxCell style="triangle;fontSize=14;points=[[0,0.5]];allowArrows=0;verticalAlign=middle;horizontal=1;spacingTop=0;align=right;spacingLeft=0;spacingRight=8;html=1;comic=0;treeFolding=0;treeMoving=0;resizable=0;movableLabel=1;spacing=2;aspect=fixed;metaEdit=1;" parent="9sVO_kpWOGSHm0b9J-cb-37" vertex="1"><mxGeometry y="47.5" width="10" height="15" as="geometry"><mxPoint x="-4" y="-8" as="offset"/></mxGeometry></mxCell></object><mxCell id="9sVO_kpWOGSHm0b9J-cb-41" style="edgeStyle=orthogonalEdgeStyle;rounded=0;orthogonalLoop=1;jettySize=auto;html=1;exitX=1;exitY=0.5;exitDx=0;exitDy=0;entryX=0;entryY=0.5;entryDx=0;entryDy=0;" parent="9sVO_kpWOGSHm0b9J-cb-30" source="9sVO_kpWOGSHm0b9J-cb-38" target="9sVO_kpWOGSHm0b9J-cb-36" edge="1"><mxGeometry relative="1" as="geometry"/></mxCell><object label="%symbol%" placeholders="1" symbol="D" class_name="DelayBlock" block_name="delay_state" id="9sVO_kpWOGSHm0b9J-cb-42"><mxCell style="whiteSpace=wrap;html=1;aspect=fixed;comic=0;fontSize=36;align=center;resizable=0;container=1;collapsible=0;points=[];allowArrows=0;metaEdit=1;connectable=0;" parent="9sVO_kpWOGSHm0b9J-cb-30" vertex="1"><mxGeometry x="370" y="115" width="80" height="80" as="geometry"/></mxCell></object><object label="%name%" placeholders="1" name="OUT1" class_name="OutputPortBlock" id="9sVO_kpWOGSHm0b9J-cb-43"><mxCell style="triangle;fontSize=14;points=[[1,0.5]];allowArrows=0;verticalAlign=middle;horizontal=1;spacingTop=0;align=left;spacingLeft=4;spacingRight=0;html=1;comic=0;treeFolding=0;treeMoving=0;movable=1;resizable=0;rotatable=1;deletable=1;editable=1;connectable=1;movableLabel=1;spacing=2;aspect=fixed;metaEdit=1;" parent="9sVO_kpWOGSHm0b9J-cb-42" vertex="1"><mxGeometry x="70" y="32.5" width="10" height="15" as="geometry"><mxPoint x="5" y="-7" as="offset"/></mxGeometry></mxCell></object><object label="%name%" placeholders="1" name="IC" class_name="InputPortBlock" id="9sVO_kpWOGSHm0b9J-cb-44"><mxCell style="triangle;fontSize=14;points=[[0,0.5]];allowArrows=0;verticalAlign=middle;horizontal=1;spacingTop=0;align=right;spacingLeft=0;spacingRight=8;html=1;comic=0;treeFolding=0;treeMoving=0;resizable=0;movableLabel=1;spacing=2;aspect=fixed;metaEdit=1;" parent="9sVO_kpWOGSHm0b9J-cb-42" vertex="1"><mxGeometry y="17.5" width="10" height="15" as="geometry"><mxPoint x="-4" y="-8" as="offset"/></mxGeometry></mxCell></object><object label="%name%" placeholders="1" name="IN1" class_name="InputPortBlock" id="9sVO_kpWOGSHm0b9J-cb-45"><mxCell style="triangle;fontSize=14;points=[[0,0.5]];allowArrows=0;verticalAlign=middle;horizontal=1;spacingTop=0;align=right;spacingLeft=0;spacingRight=8;html=1;comic=0;treeFolding=0;treeMoving=0;resizable=0;movableLabel=1;spacing=2;aspect=fixed;metaEdit=1;" parent="9sVO_kpWOGSHm0b9J-cb-42" vertex="1"><mxGeometry y="47.5" width="10" height="15" as="geometry"><mxPoint x="-4" y="-8" as="offset"/></mxGeometry></mxCell></object><mxCell id="9sVO_kpWOGSHm0b9J-cb-46" style="edgeStyle=orthogonalEdgeStyle;rounded=0;orthogonalLoop=1;jettySize=auto;html=1;exitX=1;exitY=0.5;exitDx=0;exitDy=0;entryX=0;entryY=0.5;entryDx=0;entryDy=0;" parent="9sVO_kpWOGSHm0b9J-cb-30" source="9sVO_kpWOGSHm0b9J-cb-32" target="9sVO_kpWOGSHm0b9J-cb-44" edge="1"><mxGeometry relative="1" as="geometry"/></mxCell><object label="%symbol%" placeholders="1" symbol="&amp;sum;" class_name="AdderBlock" block_name="mid_adder" id="9sVO_kpWOGSHm0b9J-cb-52"><mxCell style="whiteSpace=wrap;html=1;aspect=fixed;comic=0;fontSize=36;align=center;resizable=0;container=1;collapsible=0;points=[];allowArrows=0;spacingTop=-6;metaEdit=1;connectable=0;" parent="9sVO_kpWOGSHm0b9J-cb-30" vertex="1"><mxGeometry x="200" y="210" width="80" height="80" as="geometry"/></mxCell></object><object label="%name%" placeholders="1" name="OUT1" class_name="OutputPortBlock" id="9sVO_kpWOGSHm0b9J-cb-53"><mxCell style="triangle;fontSize=14;points=[[1,0.5]];allowArrows=0;verticalAlign=middle;horizontal=1;spacingTop=0;align=left;spacingLeft=4;spacingRight=0;html=1;comic=0;treeFolding=0;treeMoving=0;movable=1;resizable=0;rotatable=1;deletable=1;editable=1;connectable=1;movableLabel=1;spacing=2;aspect=fixed;metaEdit=1;" parent="9sVO_kpWOGSHm0b9J-cb-52" vertex="1"><mxGeometry x="70" y="32.5" width="10" height="15" as="geometry"><mxPoint x="5" y="-7" as="offset"/></mxGeometry></mxCell></object><object label="%name%" placeholders="1" name="IN1" class_name="InputPortBlock" id="9sVO_kpWOGSHm0b9J-cb-54"><mxCell style="triangle;fontSize=14;points=[[0,0.5]];allowArrows=0;verticalAlign=middle;horizontal=1;spacingTop=0;align=right;spacingLeft=0;spacingRight=8;html=1;comic=0;treeFolding=0;treeMoving=0;resizable=0;movableLabel=1;spacing=2;aspect=fixed;metaEdit=1;" parent="9sVO_kpWOGSHm0b9J-cb-52" vertex="1"><mxGeometry y="17.5" width="10" height="15" as="geometry"><mxPoint x="-4" y="-8" as="offset"/></mxGeometry></mxCell></object><object label="%name%" placeholders="1" name="IN2" class_name="InputPortBlock" id="9sVO_kpWOGSHm0b9J-cb-55"><mxCell style="triangle;fontSize=14;points=[[0,0.5]];allowArrows=0;verticalAlign=middle;horizontal=1;spacingTop=0;align=right;spacingLeft=0;spacingRight=8;html=1;comic=0;treeFolding=0;treeMoving=0;resizable=0;movableLabel=1;spacing=2;aspect=fixed;metaEdit=1;" parent="9sVO_kpWOGSHm0b9J-cb-52" vertex="1"><mxGeometry y="47.5" width="10" height="15" as="geometry"><mxPoint x="-4" y="-8" as="offset"/></mxGeometry></mxCell></object><object label="%symbol%" placeholders="1" symbol="&amp;prod;" class_name="ProductBlock" block_name="mid_halver" id="9sVO_kpWOGSHm0b9J-cb-57"><mxCell style="whiteSpace=wrap;html=1;aspect=fixed;comic=0;fontSize=36;align=center;resizable=0;container=1;collapsible=0;points=[];allowArrows=0;spacingTop=-6;metaEdit=1;connectable=0;" parent="9sVO_kpWOGSHm0b9J-cb-30" vertex="1"><mxGeometry x="426" y="310" width="80" height="80" as="geometry"/></mxCell></object><object label="%name%" placeholders="1" name="OUT1" class_name="OutputPortBlock" id="9sVO_kpWOGSHm0b9J-cb-58"><mxCell style="triangle;fontSize=14;points=[[1,0.5]];allowArrows=0;verticalAlign=middle;horizontal=1;spacingTop=0;align=left;spacingLeft=4;spacingRight=0;html=1;comic=0;treeFolding=0;treeMoving=0;movable=1;resizable=0;rotatable=1;deletable=1;editable=1;connectable=1;movableLabel=1;spacing=2;aspect=fixed;metaEdit=1;" parent="9sVO_kpWOGSHm0b9J-cb-57" vertex="1"><mxGeometry x="70" y="32.5" width="10" height="15" as="geometry"><mxPoint x="5" y="-7" as="offset"/></mxGeometry></mxCell></object><object label="%name%" placeholders="1" name="IN1" class_name="InputPortBlock" id="9sVO_kpWOGSHm0b9J-cb-59"><mxCell style="triangle;fontSize=14;points=[[0,0.5]];allowArrows=0;verticalAlign=middle;horizontal=1;spacingTop=0;align=right;spacingLeft=0;spacingRight=8;html=1;comic=0;treeFolding=0;treeMoving=0;resizable=0;movableLabel=1;spacing=2;aspect=fixed;metaEdit=1;" parent="9sVO_kpWOGSHm0b9J-cb-57" vertex="1"><mxGeometry y="17.5" width="10" height="15" as="geometry"><mxPoint x="-4" y="-8" as="offset"/></mxGeometry></mxCell></object><object label="%name%" placeholders="1" name="IN2" class_name="InputPortBlock" id="9sVO_kpWOGSHm0b9J-cb-60"><mxCell style="triangle;fontSize=14;points=[[0,0.5]];allowArrows=0;verticalAlign=middle;horizontal=1;spacingTop=0;align=right;spacingLeft=0;spacingRight=8;html=1;comic=0;treeFolding=0;treeMoving=0;resizable=0;movableLabel=1;spacing=2;aspect=fixed;metaEdit=1;" parent="9sVO_kpWOGSHm0b9J-cb-57" vertex="1"><mxGeometry y="47.5" width="10" height="15" as="geometry"><mxPoint x="-4" y="-8" as="offset"/></mxGeometry></mxCell></object><mxCell id="9sVO_kpWOGSHm0b9J-cb-61" style="edgeStyle=orthogonalEdgeStyle;rounded=0;orthogonalLoop=1;jettySize=auto;html=1;exitX=1;exitY=0.5;exitDx=0;exitDy=0;entryX=0;entryY=0.5;entryDx=0;entryDy=0;" parent="9sVO_kpWOGSHm0b9J-cb-30" source="9sVO_kpWOGSHm0b9J-cb-53" target="9sVO_kpWOGSHm0b9J-cb-59" edge="1"><mxGeometry relative="1" as="geometry"/></mxCell><object label="%value%" placeholders="1" value="0.5" block_name="halver" class_name="ConstantBlock" id="9sVO_kpWOGSHm0b9J-cb-62"><mxCell style="ellipse;whiteSpace=wrap;html=1;comic=0;fontSize=24;align=center;allowArrows=0;connectable=0;container=1;collapsible=0;recursiveResize=1;direction=west;resizable=0;metaEdit=1;" parent="9sVO_kpWOGSHm0b9J-cb-30" vertex="1"><mxGeometry x="240" y="320" width="80" height="80" as="geometry"/></mxCell></object><object label="%name%" placeholders="1" name="OUT1" class_name="OutputPortBlock" id="9sVO_kpWOGSHm0b9J-cb-63"><mxCell style="triangle;fontSize=14;points=[[1,0.5]];allowArrows=0;verticalAlign=middle;horizontal=1;spacingTop=0;align=left;spacingLeft=4;spacingRight=0;html=1;comic=0;treeFolding=0;treeMoving=0;movable=1;resizable=0;rotatable=1;deletable=1;editable=1;connectable=1;movableLabel=1;spacing=2;aspect=fixed;metaEdit=1;" parent="9sVO_kpWOGSHm0b9J-cb-62" vertex="1"><mxGeometry x="70" y="32.5" width="10" height="15" as="geometry"><mxPoint x="6" y="-7" as="offset"/></mxGeometry></mxCell></object><mxCell id="9sVO_kpWOGSHm0b9J-cb-64" style="edgeStyle=orthogonalEdgeStyle;rounded=0;orthogonalLoop=1;jettySize=auto;html=1;exitX=1;exitY=0.5;exitDx=0;exitDy=0;entryX=0;entryY=0.5;entryDx=0;entryDy=0;" parent="9sVO_kpWOGSHm0b9J-cb-30" source="9sVO_kpWOGSHm0b9J-cb-63" target="9sVO_kpWOGSHm0b9J-cb-60" edge="1"><mxGeometry relative="1" as="geometry"/></mxCell><mxCell id="9sVO_kpWOGSHm0b9J-cb-65" style="edgeStyle=orthogonalEdgeStyle;rounded=0;orthogonalLoop=1;jettySize=auto;html=1;exitX=1;exitY=0.5;exitDx=0;exitDy=0;entryX=0;entryY=0.5;entryDx=0;entryDy=0;" parent="9sVO_kpWOGSHm0b9J-cb-30" source="9sVO_kpWOGSHm0b9J-cb-38" target="9sVO_kpWOGSHm0b9J-cb-45" edge="1"><mxGeometry relative="1" as="geometry"><Array as="points"><mxPoint x="696" y="170"/><mxPoint x="696" y="70"/><mxPoint x="326" y="70"/><mxPoint x="326" y="170"/></Array></mxGeometry></mxCell><mxCell id="9sVO_kpWOGSHm0b9J-cb-66" style="edgeStyle=orthogonalEdgeStyle;rounded=0;orthogonalLoop=1;jettySize=auto;html=1;exitX=1;exitY=0.5;exitDx=0;exitDy=0;entryX=0;entryY=0.5;entryDx=0;entryDy=0;" parent="9sVO_kpWOGSHm0b9J-cb-30" source="9sVO_kpWOGSHm0b9J-cb-43" target="9sVO_kpWOGSHm0b9J-cb-39" edge="1"><mxGeometry relative="1" as="geometry"/></mxCell><mxCell id="9sVO_kpWOGSHm0b9J-cb-67" style="edgeStyle=orthogonalEdgeStyle;rounded=0;orthogonalLoop=1;jettySize=auto;html=1;exitX=1;exitY=0.5;exitDx=0;exitDy=0;entryX=0;entryY=0.5;entryDx=0;entryDy=0;" parent="9sVO_kpWOGSHm0b9J-cb-30" source="9sVO_kpWOGSHm0b9J-cb-58" target="9sVO_kpWOGSHm0b9J-cb-40" edge="1"><mxGeometry relative="1" as="geometry"><Array as="points"><mxPoint x="546" y="350"/><mxPoint x="546" y="185"/></Array></mxGeometry></mxCell><mxCell id="9sVO_kpWOGSHm0b9J-cb-131" style="edgeStyle=orthogonalEdgeStyle;rounded=0;orthogonalLoop=1;jettySize=auto;html=1;exitX=1;exitY=0.5;exitDx=0;exitDy=0;entryX=0;entryY=0.5;entryDx=0;entryDy=0;" parent="9sVO_kpWOGSHm0b9J-cb-30" source="9sVO_kpWOGSHm0b9J-cb-129" target="9sVO_kpWOGSHm0b9J-cb-55" edge="1"><mxGeometry relative="1" as="geometry"/></mxCell><object label="%name%" placeholders="1" name="fb" class_name="InputPortBlock" id="9sVO_kpWOGSHm0b9J-cb-129"><mxCell style="triangle;fontSize=14;points=[[0,0.5],[1,0.5]];allowArrows=0;verticalAlign=middle;horizontal=1;spacingTop=0;align=right;spacingLeft=0;spacingRight=8;html=1;comic=0;treeFolding=0;treeMoving=0;resizable=0;movableLabel=1;spacing=2;aspect=fixed;metaEdit=1;" parent="9sVO_kpWOGSHm0b9J-cb-30" vertex="1"><mxGeometry x="20" y="292.5" width="10" height="15" as="geometry"><mxPoint x="-4" y="-8" as="offset"/></mxGeometry></mxCell></object><object label="" placeholders="1" class_name="SimpsonBlock" id="9sVO_kpWOGSHm0b9J-cb-68"><mxCell style="rounded=0;whiteSpace=wrap;html=1;container=0;connectable=0;allowArrows=0;treeFolding=0;moveCells=0;treeMoving=0;comic=0;rotatable=0;expand=1;autosize=1;resizeWidth=1;resizeHeight=1;metaEdit=1;" parent="1" vertex="1"><mxGeometry x="950" y="-240" width="760" height="540" as="geometry"><mxRectangle x="40" y="400" width="50" height="40" as="alternateBounds"/></mxGeometry></mxCell></object><object label="%class_name%" placeholders="1" id="9sVO_kpWOGSHm0b9J-cb-69"><mxCell style="rounded=0;whiteSpace=wrap;html=1;fontSize=18;connectable=0;allowArrows=0;rotatable=0;cloneable=0;deletable=0;" parent="9sVO_kpWOGSHm0b9J-cb-68" vertex="1"><mxGeometry x="10" y="20" width="740" height="40" as="geometry"/></mxCell></object><mxCell id="9sVO_kpWOGSHm0b9J-cb-70" value="" style="rounded=0;whiteSpace=wrap;html=1;connectable=0;allowArrows=0;container=1;collapsible=0;portConstraintRotation=0;rotatable=0;cloneable=0;deletable=0;recursiveResize=0;" parent="9sVO_kpWOGSHm0b9J-cb-68" vertex="1"><mxGeometry x="10" y="70" width="740" height="460" as="geometry"><mxRectangle x="10" y="70" width="50" height="40" as="alternateBounds"/></mxGeometry></mxCell><mxCell id="9sVO_kpWOGSHm0b9J-cb-93" style="edgeStyle=orthogonalEdgeStyle;rounded=0;orthogonalLoop=1;jettySize=auto;html=1;exitX=1;exitY=0.5;exitDx=0;exitDy=0;entryX=0;entryY=0.5;entryDx=0;entryDy=0;" parent="9sVO_kpWOGSHm0b9J-cb-70" source="9sVO_kpWOGSHm0b9J-cb-71" target="9sVO_kpWOGSHm0b9J-cb-78" edge="1"><mxGeometry relative="1" as="geometry"/></mxCell><object label="%name%" placeholders="1" name="fa" class_name="InputPortBlock" id="9sVO_kpWOGSHm0b9J-cb-71"><mxCell style="triangle;fontSize=14;points=[[0,0.5],[1,0.5]];allowArrows=0;verticalAlign=middle;horizontal=1;spacingTop=0;align=right;spacingLeft=0;spacingRight=8;html=1;comic=0;treeFolding=0;treeMoving=0;resizable=0;movableLabel=1;spacing=2;aspect=fixed;metaEdit=1;" parent="9sVO_kpWOGSHm0b9J-cb-70" vertex="1"><mxGeometry x="45" y="30" width="10" height="15" as="geometry"><mxPoint x="-4" y="-8" as="offset"/></mxGeometry></mxCell></object><mxCell id="9sVO_kpWOGSHm0b9J-cb-88" style="edgeStyle=orthogonalEdgeStyle;rounded=0;orthogonalLoop=1;jettySize=auto;html=1;exitX=1;exitY=0.5;exitDx=0;exitDy=0;entryX=0;entryY=0.5;entryDx=0;entryDy=0;" parent="9sVO_kpWOGSHm0b9J-cb-70" source="9sVO_kpWOGSHm0b9J-cb-72" target="9sVO_kpWOGSHm0b9J-cb-87" edge="1"><mxGeometry relative="1" as="geometry"/></mxCell><object label="%name%" placeholders="1" name="fmid" class_name="InputPortBlock" id="9sVO_kpWOGSHm0b9J-cb-72"><mxCell style="triangle;fontSize=14;points=[[0,0.5],[1,0.5]];allowArrows=0;verticalAlign=middle;horizontal=1;spacingTop=0;align=right;spacingLeft=0;spacingRight=8;html=1;comic=0;treeFolding=0;treeMoving=0;resizable=0;movableLabel=1;spacing=2;aspect=fixed;metaEdit=1;" parent="9sVO_kpWOGSHm0b9J-cb-70" vertex="1"><mxGeometry x="50" y="160" width="10" height="15" as="geometry"><mxPoint x="-4" y="-8" as="offset"/></mxGeometry></mxCell></object><mxCell id="9sVO_kpWOGSHm0b9J-cb-97" style="edgeStyle=orthogonalEdgeStyle;rounded=0;orthogonalLoop=1;jettySize=auto;html=1;exitX=1;exitY=0.5;exitDx=0;exitDy=0;entryX=0;entryY=0.5;entryDx=0;entryDy=0;" parent="9sVO_kpWOGSHm0b9J-cb-70" source="9sVO_kpWOGSHm0b9J-cb-73" target="9sVO_kpWOGSHm0b9J-cb-83" edge="1"><mxGeometry relative="1" as="geometry"/></mxCell><object label="%name%" placeholders="1" name="fb" class_name="InputPortBlock" id="9sVO_kpWOGSHm0b9J-cb-73"><mxCell style="triangle;fontSize=14;points=[[0,0.5],[1,0.5]];allowArrows=0;verticalAlign=middle;horizontal=1;spacingTop=0;align=right;spacingLeft=0;spacingRight=8;html=1;comic=0;treeFolding=0;treeMoving=0;resizable=0;movableLabel=1;spacing=2;aspect=fixed;metaEdit=1;" parent="9sVO_kpWOGSHm0b9J-cb-70" vertex="1"><mxGeometry x="50" y="230" width="10" height="15" as="geometry"><mxPoint x="-4" y="-8" as="offset"/></mxGeometry></mxCell></object><object label="%value%" placeholders="1" value="1" block_name="b-a" class_name="ConstantBlock" id="9sVO_kpWOGSHm0b9J-cb-74"><mxCell style="ellipse;whiteSpace=wrap;html=1;comic=0;fontSize=24;align=center;allowArrows=0;connectable=0;container=1;collapsible=0;recursiveResize=1;direction=west;resizable=0;metaEdit=1;" parent="9sVO_kpWOGSHm0b9J-cb-70" vertex="1"><mxGeometry x="300" y="260" width="80" height="80" as="geometry"/></mxCell></object><object label="%name%" placeholders="1" name="OUT1" class_name="OutputPortBlock" id="9sVO_kpWOGSHm0b9J-cb-75"><mxCell style="triangle;fontSize=14;points=[[1,0.5]];allowArrows=0;verticalAlign=middle;horizontal=1;spacingTop=0;align=left;spacingLeft=4;spacingRight=0;html=1;comic=0;treeFolding=0;treeMoving=0;movable=1;resizable=0;rotatable=1;deletable=1;editable=1;connectable=1;movableLabel=1;spacing=2;aspect=fixed;metaEdit=1;" parent="9sVO_kpWOGSHm0b9J-cb-74" vertex="1"><mxGeometry x="70" y="32.5" width="10" height="15" as="geometry"><mxPoint x="6" y="-7" as="offset"/></mxGeometry></mxCell></object><object label="%symbol%" placeholders="1" symbol="&amp;sum;" class_name="AdderBlock" block_name="" id="9sVO_kpWOGSHm0b9J-cb-76"><mxCell style="whiteSpace=wrap;html=1;aspect=fixed;comic=0;fontSize=36;align=center;resizable=0;container=1;collapsible=0;points=[];allowArrows=0;spacingTop=-6;metaEdit=1;connectable=0;" parent="9sVO_kpWOGSHm0b9J-cb-70" vertex="1"><mxGeometry x="300" y="57.5" width="80" height="80" as="geometry"/></mxCell></object><object label="%name%" placeholders="1" name="OUT1" class_name="OutputPortBlock" id="9sVO_kpWOGSHm0b9J-cb-77"><mxCell style="triangle;fontSize=14;points=[[1,0.5]];allowArrows=0;verticalAlign=middle;horizontal=1;spacingTop=0;align=left;spacingLeft=4;spacingRight=0;html=1;comic=0;treeFolding=0;treeMoving=0;movable=1;resizable=0;rotatable=1;deletable=1;editable=1;connectable=1;movableLabel=1;spacing=2;aspect=fixed;metaEdit=1;" parent="9sVO_kpWOGSHm0b9J-cb-76" vertex="1"><mxGeometry x="70" y="32.5" width="10" height="15" as="geometry"><mxPoint x="5" y="-7" as="offset"/></mxGeometry></mxCell></object><object label="%name%" placeholders="1" name="IN1" class_name="InputPortBlock" id="9sVO_kpWOGSHm0b9J-cb-78"><mxCell style="triangle;fontSize=14;points=[[0,0.5]];allowArrows=0;verticalAlign=middle;horizontal=1;spacingTop=0;align=right;spacingLeft=0;spacingRight=8;html=1;comic=0;treeFolding=0;treeMoving=0;resizable=0;movableLabel=1;spacing=2;aspect=fixed;metaEdit=1;" parent="9sVO_kpWOGSHm0b9J-cb-76" vertex="1"><mxGeometry y="17.5" width="10" height="15" as="geometry"><mxPoint x="-4" y="-8" as="offset"/></mxGeometry></mxCell></object><object label="%name%" placeholders="1" name="IN2" class_name="InputPortBlock" id="9sVO_kpWOGSHm0b9J-cb-79"><mxCell style="triangle;fontSize=14;points=[[0,0.5]];allowArrows=0;verticalAlign=middle;horizontal=1;spacingTop=0;align=right;spacingLeft=0;spacingRight=8;html=1;comic=0;treeFolding=0;treeMoving=0;resizable=0;movableLabel=1;spacing=2;aspect=fixed;metaEdit=1;" parent="9sVO_kpWOGSHm0b9J-cb-76" vertex="1"><mxGeometry y="47.5" width="10" height="15" as="geometry"><mxPoint x="-4" y="-8" as="offset"/></mxGeometry></mxCell></object><object label="%symbol%" placeholders="1" symbol="&amp;sum;" class_name="AdderBlock" block_name="" id="9sVO_kpWOGSHm0b9J-cb-80"><mxCell style="whiteSpace=wrap;html=1;aspect=fixed;comic=0;fontSize=36;align=center;resizable=0;container=1;collapsible=0;points=[];allowArrows=0;spacingTop=-6;metaEdit=1;connectable=0;" parent="9sVO_kpWOGSHm0b9J-cb-70" vertex="1"><mxGeometry x="460" y="183" width="80" height="80" as="geometry"/></mxCell></object><object label="%name%" placeholders="1" name="OUT1" class_name="OutputPortBlock" id="9sVO_kpWOGSHm0b9J-cb-81"><mxCell style="triangle;fontSize=14;points=[[1,0.5]];allowArrows=0;verticalAlign=middle;horizontal=1;spacingTop=0;align=left;spacingLeft=4;spacingRight=0;html=1;comic=0;treeFolding=0;treeMoving=0;movable=1;resizable=0;rotatable=1;deletable=1;editable=1;connectable=1;movableLabel=1;spacing=2;aspect=fixed;metaEdit=1;" parent="9sVO_kpWOGSHm0b9J-cb-80" vertex="1"><mxGeometry x="70" y="32.5" width="10" height="15" as="geometry"><mxPoint x="5" y="-7" as="offset"/></mxGeometry></mxCell></object><object label="%name%" placeholders="1" name="IN1" class_name="InputPortBlock" id="9sVO_kpWOGSHm0b9J-cb-82"><mxCell style="triangle;fontSize=14;points=[[0,0.5]];allowArrows=0;verticalAlign=middle;horizontal=1;spacingTop=0;align=right;spacingLeft=0;spacingRight=8;html=1;comic=0;treeFolding=0;treeMoving=0;resizable=0;movableLabel=1;spacing=2;aspect=fixed;metaEdit=1;" parent="9sVO_kpWOGSHm0b9J-cb-80" vertex="1"><mxGeometry y="17.5" width="10" height="15" as="geometry"><mxPoint x="-4" y="-8" as="offset"/></mxGeometry></mxCell></object><object label="%name%" placeholders="1" name="IN2" class_name="InputPortBlock" id="9sVO_kpWOGSHm0b9J-cb-83"><mxCell style="triangle;fontSize=14;points=[[0,0.5]];allowArrows=0;verticalAlign=middle;horizontal=1;spacingTop=0;align=right;spacingLeft=0;spacingRight=8;html=1;comic=0;treeFolding=0;treeMoving=0;resizable=0;movableLabel=1;spacing=2;aspect=fixed;metaEdit=1;" parent="9sVO_kpWOGSHm0b9J-cb-80" vertex="1"><mxGeometry y="47.5" width="10" height="15" as="geometry"><mxPoint x="-4" y="-8" as="offset"/></mxGeometry></mxCell></object><object label="%symbol%" placeholders="1" symbol="&amp;prod;" class_name="ProductBlock" block_name="" id="9sVO_kpWOGSHm0b9J-cb-84"><mxCell style="whiteSpace=wrap;html=1;aspect=fixed;comic=0;fontSize=36;align=center;resizable=0;container=1;collapsible=0;points=[];allowArrows=0;spacingTop=-6;metaEdit=1;connectable=0;" parent="9sVO_kpWOGSHm0b9J-cb-70" vertex="1"><mxGeometry x="144" y="112" width="80" height="80" as="geometry"/></mxCell></object><object label="%name%" placeholders="1" name="OUT1" class_name="OutputPortBlock" id="9sVO_kpWOGSHm0b9J-cb-85"><mxCell style="triangle;fontSize=14;points=[[1,0.5]];allowArrows=0;verticalAlign=middle;horizontal=1;spacingTop=0;align=left;spacingLeft=4;spacingRight=0;html=1;comic=0;treeFolding=0;treeMoving=0;movable=1;resizable=0;rotatable=1;deletable=1;editable=1;connectable=1;movableLabel=1;spacing=2;aspect=fixed;metaEdit=1;" parent="9sVO_kpWOGSHm0b9J-cb-84" vertex="1"><mxGeometry x="70" y="32.5" width="10" height="15" as="geometry"><mxPoint x="5" y="-7" as="offset"/></mxGeometry></mxCell></object><object label="%name%" placeholders="1" name="IN1" class_name="InputPortBlock" id="9sVO_kpWOGSHm0b9J-cb-86"><mxCell style="triangle;fontSize=14;points=[[0,0.5]];allowArrows=0;verticalAlign=middle;horizontal=1;spacingTop=0;align=right;spacingLeft=0;spacingRight=8;html=1;comic=0;treeFolding=0;treeMoving=0;resizable=0;movableLabel=1;spacing=2;aspect=fixed;metaEdit=1;" parent="9sVO_kpWOGSHm0b9J-cb-84" vertex="1"><mxGeometry y="17.5" width="10" height="15" as="geometry"><mxPoint x="-4" y="-8" as="offset"/></mxGeometry></mxCell></object><object label="%name%" placeholders="1" name="IN2" class_name="InputPortBlock" id="9sVO_kpWOGSHm0b9J-cb-87"><mxCell style="triangle;fontSize=14;points=[[0,0.5]];allowArrows=0;verticalAlign=middle;horizontal=1;spacingTop=0;align=right;spacingLeft=0;spacingRight=8;html=1;comic=0;treeFolding=0;treeMoving=0;resizable=0;movableLabel=1;spacing=2;aspect=fixed;metaEdit=1;" parent="9sVO_kpWOGSHm0b9J-cb-84" vertex="1"><mxGeometry y="47.5" width="10" height="15" as="geometry"><mxPoint x="-4" y="-8" as="offset"/></mxGeometry></mxCell></object><object label="%value%" placeholders="1" value="4" block_name="four" class_name="ConstantBlock" id="9sVO_kpWOGSHm0b9J-cb-89"><mxCell style="ellipse;whiteSpace=wrap;html=1;comic=0;fontSize=24;align=center;allowArrows=0;connectable=0;container=1;collapsible=0;recursiveResize=1;direction=west;resizable=0;metaEdit=1;" parent="9sVO_kpWOGSHm0b9J-cb-70" vertex="1"><mxGeometry x="10" y="65" width="80" height="80" as="geometry"/></mxCell></object><object label="%name%" placeholders="1" name="OUT1" class_name="OutputPortBlock" id="9sVO_kpWOGSHm0b9J-cb-90"><mxCell style="triangle;fontSize=14;points=[[1,0.5]];allowArrows=0;verticalAlign=middle;horizontal=1;spacingTop=0;align=left;spacingLeft=4;spacingRight=0;html=1;comic=0;treeFolding=0;treeMoving=0;movable=1;resizable=0;rotatable=1;deletable=1;editable=1;connectable=1;movableLabel=1;spacing=2;aspect=fixed;metaEdit=1;" parent="9sVO_kpWOGSHm0b9J-cb-89" vertex="1"><mxGeometry x="70" y="32.5" width="10" height="15" as="geometry"><mxPoint x="6" y="-7" as="offset"/></mxGeometry></mxCell></object><mxCell id="9sVO_kpWOGSHm0b9J-cb-91" style="edgeStyle=orthogonalEdgeStyle;rounded=0;orthogonalLoop=1;jettySize=auto;html=1;exitX=1;exitY=0.5;exitDx=0;exitDy=0;entryX=0;entryY=0.5;entryDx=0;entryDy=0;" parent="9sVO_kpWOGSHm0b9J-cb-70" source="9sVO_kpWOGSHm0b9J-cb-90" target="9sVO_kpWOGSHm0b9J-cb-86" edge="1"><mxGeometry relative="1" as="geometry"/></mxCell><mxCell id="9sVO_kpWOGSHm0b9J-cb-92" style="edgeStyle=orthogonalEdgeStyle;rounded=0;orthogonalLoop=1;jettySize=auto;html=1;exitX=1;exitY=0.5;exitDx=0;exitDy=0;entryX=0;entryY=0.5;entryDx=0;entryDy=0;" parent="9sVO_kpWOGSHm0b9J-cb-70" source="9sVO_kpWOGSHm0b9J-cb-85" target="9sVO_kpWOGSHm0b9J-cb-79" edge="1"><mxGeometry relative="1" as="geometry"/></mxCell><mxCell id="9sVO_kpWOGSHm0b9J-cb-96" style="edgeStyle=orthogonalEdgeStyle;rounded=0;orthogonalLoop=1;jettySize=auto;html=1;exitX=1;exitY=0.5;exitDx=0;exitDy=0;entryX=0;entryY=0.5;entryDx=0;entryDy=0;" parent="9sVO_kpWOGSHm0b9J-cb-70" source="9sVO_kpWOGSHm0b9J-cb-77" target="9sVO_kpWOGSHm0b9J-cb-82" edge="1"><mxGeometry relative="1" as="geometry"/></mxCell><object label="%name%" placeholders="1" name="out" class_name="OutputPortBlock" id="9sVO_kpWOGSHm0b9J-cb-98"><mxCell style="triangle;fontSize=14;points=[[0,0.5],[1,0.5]];allowArrows=0;verticalAlign=middle;horizontal=1;spacingTop=0;align=left;spacingLeft=4;spacingRight=0;html=1;comic=0;treeFolding=0;treeMoving=0;movable=1;resizable=0;rotatable=1;deletable=1;editable=1;connectable=1;movableLabel=1;spacing=2;aspect=fixed;metaEdit=1;" parent="9sVO_kpWOGSHm0b9J-cb-70" vertex="1"><mxGeometry x="730" y="277.5" width="10" height="15" as="geometry"><mxPoint x="5" y="-7" as="offset"/></mxGeometry></mxCell></object><object label="%symbol%" placeholders="1" symbol="&amp;prod;" class_name="ProductBlock" block_name="" id="9sVO_kpWOGSHm0b9J-cb-99"><mxCell style="whiteSpace=wrap;html=1;aspect=fixed;comic=0;fontSize=36;align=center;resizable=0;container=1;collapsible=0;points=[];allowArrows=0;spacingTop=-6;metaEdit=1;connectable=0;" parent="9sVO_kpWOGSHm0b9J-cb-70" vertex="1"><mxGeometry x="600" y="245" width="80" height="80" as="geometry"/></mxCell></object><object label="%name%" placeholders="1" name="OUT1" class_name="OutputPortBlock" id="9sVO_kpWOGSHm0b9J-cb-100"><mxCell style="triangle;fontSize=14;points=[[1,0.5]];allowArrows=0;verticalAlign=middle;horizontal=1;spacingTop=0;align=left;spacingLeft=4;spacingRight=0;html=1;comic=0;treeFolding=0;treeMoving=0;movable=1;resizable=0;rotatable=1;deletable=1;editable=1;connectable=1;movableLabel=1;spacing=2;aspect=fixed;metaEdit=1;" parent="9sVO_kpWOGSHm0b9J-cb-99" vertex="1"><mxGeometry x="70" y="32.5" width="10" height="15" as="geometry"><mxPoint x="5" y="-7" as="offset"/></mxGeometry></mxCell></object><object label="%name%" placeholders="1" name="IN1" class_name="InputPortBlock" id="9sVO_kpWOGSHm0b9J-cb-101"><mxCell style="triangle;fontSize=14;points=[[0,0.5]];allowArrows=0;verticalAlign=middle;horizontal=1;spacingTop=0;align=right;spacingLeft=0;spacingRight=8;html=1;comic=0;treeFolding=0;treeMoving=0;resizable=0;movableLabel=1;spacing=2;aspect=fixed;metaEdit=1;" parent="9sVO_kpWOGSHm0b9J-cb-99" vertex="1"><mxGeometry y="17.5" width="10" height="15" as="geometry"><mxPoint x="-4" y="-8" as="offset"/></mxGeometry></mxCell></object><object label="%name%" placeholders="1" name="IN2" class_name="InputPortBlock" id="9sVO_kpWOGSHm0b9J-cb-102"><mxCell style="triangle;fontSize=14;points=[[0,0.5]];allowArrows=0;verticalAlign=middle;horizontal=1;spacingTop=0;align=right;spacingLeft=0;spacingRight=8;html=1;comic=0;treeFolding=0;treeMoving=0;resizable=0;movableLabel=1;spacing=2;aspect=fixed;metaEdit=1;" parent="9sVO_kpWOGSHm0b9J-cb-99" vertex="1"><mxGeometry y="47.5" width="10" height="15" as="geometry"><mxPoint x="-4" y="-8" as="offset"/></mxGeometry></mxCell></object><mxCell id="9sVO_kpWOGSHm0b9J-cb-103" style="edgeStyle=orthogonalEdgeStyle;rounded=0;orthogonalLoop=1;jettySize=auto;html=1;exitX=1;exitY=0.5;exitDx=0;exitDy=0;entryX=0;entryY=0.5;entryDx=0;entryDy=0;" parent="9sVO_kpWOGSHm0b9J-cb-70" source="9sVO_kpWOGSHm0b9J-cb-81" target="9sVO_kpWOGSHm0b9J-cb-101" edge="1"><mxGeometry relative="1" as="geometry"/></mxCell><mxCell id="9sVO_kpWOGSHm0b9J-cb-104" style="edgeStyle=orthogonalEdgeStyle;rounded=0;orthogonalLoop=1;jettySize=auto;html=1;exitX=1;exitY=0.5;exitDx=0;exitDy=0;entryX=0;entryY=0.5;entryDx=0;entryDy=0;" parent="9sVO_kpWOGSHm0b9J-cb-70" source="9sVO_kpWOGSHm0b9J-cb-100" target="9sVO_kpWOGSHm0b9J-cb-98" edge="1"><mxGeometry relative="1" as="geometry"/></mxCell><mxCell id="9sVO_kpWOGSHm0b9J-cb-105" style="edgeStyle=orthogonalEdgeStyle;rounded=0;orthogonalLoop=1;jettySize=auto;html=1;exitX=1;exitY=0.5;exitDx=0;exitDy=0;entryX=0;entryY=0.5;entryDx=0;entryDy=0;" parent="9sVO_kpWOGSHm0b9J-cb-70" source="9sVO_kpWOGSHm0b9J-cb-75" target="9sVO_kpWOGSHm0b9J-cb-102" edge="1"><mxGeometry relative="1" as="geometry"/></mxCell></root></mxGraphModel></diagram></mxfile>